<svg width="1440" height="1025" viewBox="0 0 1440 1025" fill="none" xmlns="http://www.w3.org/2000/svg">
<g opacity="0.4" clip-path="url(#clip0_1_262)">
<rect width="1443" height="1025" fill="#FBC303"/>
<path opacity="0.6" d="M1453 217V734.786C1433.36 738.096 1413.26 743.297 1391.75 753.227C1320.68 784.437 1275.33 861.986 1240.73 905.49C1204.72 948.993 1147.21 970.272 1110.74 965.07C1002.27 949.466 931.201 992.497 890.056 1036H555.749C514.604 992.497 443.067 949.466 335.06 965.07C298.591 970.272 241.081 948.52 205.078 905.49C170.479 861.986 125.125 784.437 54.0559 753.227C31.613 742.825 10.5727 737.623 -10 734.313V217H1453Z" fill="white"/>
<path d="M1446.57 -38V580.953C1427 584.91 1406.86 591.128 1385.61 602.998C1315.15 640.305 1270.41 733.007 1235.73 785.01C1199.94 837.013 1143.46 862.45 1107.1 856.232C999.728 837.578 832.5 926.556 832.5 1035.56H625C625 947.056 446.068 837.578 338.691 856.232C302.899 862.45 245.855 836.448 210.063 785.01C175.949 733.007 130.649 640.305 60.1831 602.998C37.813 590.562 17.1206 584.345 -3.57178 580.388V-38H1446.57Z" fill="#FEF1CF"/>
</g>
<defs>
<clipPath id="clip0_1_262">
<rect width="1443" height="1025" fill="white"/>
</clipPath>
</defs>
</svg>
